#!OML:ASF H:\Pregnant\Project 1\Capture day 1\Session 1\femalepreg.ASF
:FULLY-SPECIFIED
:DEGREES
545
root -4.71329 15.3393 41.5201 -157.844 -0.633274 184.156
lowerback -17.5059 0.0370859 -6.17208
upperback -4.80166 1.91824 -0.471362
thorax 4.48666 1.24195 3.42414
lowerneck -24.3112 6.52025 6.29423
upperneck 23.9234 7.6737 -3.93224
head 12.3561 3.34929 -1.19085
rclavicle 6.95746e-016 1.66979e-014
rhumerus -38.9556 -8.03185 -75.0188
rradius 21.9922
rwrist 3.35176
rhand -20.2844 -17.1837
rfingers 7.12502
rthumb 6.06526 -47.0768
lclavicle 6.95746e-016 1.66979e-014
lhumerus -37.8209 -14.1793 86.3318
lradius 32.4938
lwrist 41.3102
lhand -30.2598 -6.23556
lfingers 7.12502
lthumb -3.56834 23.7143
rfemur -39.0456 18.2211 16.4959
rtibia 32.6007
rfoot -13.8489 -11.2671
rtoes -14.9542
lfemur -36.4976 -13.5651 -13.9858
ltibia 28.4991
lfoot -11.2229 7.50288
ltoes -12.8808
546
root -4.72263 15.3386 41.5347 -157.648 -0.742661 184.149
lowerback -17.4499 -0.0899074 -6.48989
upperback -4.83401 1.80927 -0.482997
thorax 4.42353 1.19332 3.56703
lowerneck -24.3012 6.49904 6.2673
upperneck 24.1314 7.60002 -3.76748
head 12.423 3.33059 -1.13833
rclavicle 9.83984e-015 -7.95139e-016
rhumerus -39.2103 -8.14892 -74.9964
rradius 22.3634
rwrist 2.83576
rhand -20.1725 -17.1404
rfingers 7.12502
rthumb 6.17327 -47.0304
lclavicle 9.83984e-015 -7.95139e-016
lhumerus -37.7576 -14.4584 86.3034
lradius 32.5249
lwrist 41.2846
lhand -30.197 -6.20684
lfingers 7.12502
lthumb -3.50769 23.744
rfemur -39.3799 18.1615 16.368
rtibia 32.7087
rfoot -13.8124 -11.3191
rtoes -15.055
lfemur -36.8471 -13.586 -13.9423
ltibia 28.5553
lfoot -11.2044 7.42494
ltoes -12.7564
547
root -4.73236 15.3376 41.5503 -157.437 -0.837929 184.142
lowerback -17.3915 0.728224 -7.08561
upperback -4.86389 1.47923 -0.571103
thorax 4.3055 0.385113 3.68782
lowerneck -24.2975 6.46305 6.21106
upperneck 24.354 7.50558 -3.57234
head 12.4935 3.30359 -1.07315
rclavicle -1.68967e-014 4.77083e-015
rhumerus -39.4453 -8.25131 -75.0128
rradius 22.7681
rwrist 2.29111
rhand -20.0293 -17.0411
rfingers 7.12502
rthumb 6.31155 -46.9271
lclavicle -1.68967e-014 4.77083e-015
lhumerus -37.6767 -14.7347 86.2482
lradius 32.5538
lwrist 41.2406
lhand -30.1427 -6.16607
lfingers 7.12502
lthumb -3.45526 23.7857
rfemur -39.7455 18.0965 16.2333
rtibia 32.832
rfoot -13.7759 -11.3502
rtoes -15.1551
lfemur -37.217 -13.5815 -13.905
ltibia 28.6213
lfoot -11.1888 7.33477
ltoes -12.6228
548
root -4.74257 15.3365 41.5665 -157.221 -0.916813 184.138
lowerback -17.3275 0.625759 -7.37181
upperback -4.90461 1.38015 -0.609175
thorax 4.22899 0.335776 3.78719
lowerneck -24.3131 6.4315 6.16872
upperneck 24.6108 7.4092 -3.37765
head 12.5825 3.27575 -1.0101
rclavicle -7.05686e-015 1.90833e-014
rhumerus -39.666 -8.34571 -75.0634
rradius 23.1934
rwrist 1.73121
rhand -19.8401 -16.9427
rfingers 7.12502
rthumb 6.4942 -46.8232
lclavicle -7.05686e-015 1.90833e-014
lhumerus -37.5853 -15.0156 86.1691
lradius 32.5811
lwrist 41.1848
lhand -30.1111 -6.11361
lfingers 7.12502
lthumb -3.42479 23.8386
rfemur -40.1256 18.0297 16.0959
rtibia 32.9599
rfoot -13.7363 -11.3613
rtoes -15.2517
lfemur -37.593 -13.5668 -13.8699
ltibia 28.6918
lfoot -11.1744 7.25201
ltoes -12.4837
549
root -4.75391 15.3354 41.5821 -157.023 -0.964036 184.143
lowerback -17.2523 0.542975 -7.62285
upperback -4.94518 1.30016 -0.664814
thorax 4.14674 0.29624 3.85168
lowerneck -24.2976 6.37384 6.09036
upperneck 24.8733 7.27709 -3.14676
head 12.6632 3.23347 -0.934744
rclavicle -1.42131e-014 4.77083e-015
rhumerus -39.8823 -8.42876 -75.1519
rradius 23.652
rwrist 1.14058
rhand -19.5707 -16.9165
rfingers 7.12502
rthumb 6.75427 -46.7888
lclavicle -1.42131e-014 4.77083e-015
lhumerus -37.4929 -15.3061 86.0649
lradius 32.6104
lwrist 41.1291
lhand -30.093 -6.05775
lfingers 7.12502
lthumb -3.4073 23.8948
rfemur -40.485 17.967 15.968
rtibia 33.0789
rfoot -13.6938 -11.3434
rtoes -15.345
lfemur -37.9384 -13.5608 -13.833
ltibia 28.7612
lfoot -11.1573 7.20904
ltoes -12.3649
550
root -4.76628 15.3343 41.5971 -156.847 -0.983144 184.157
lowerback -17.1807 0.472715 -7.85384
upperback -4.97249 1.23562 -0.723497
thorax 4.08 0.26434 3.905
lowerneck -24.3023 6.33915 6.0453
upperneck 25.1649 7.1705 -2.94606
head 12.7649 3.20026 -0.870799
rclavicle -8.94531e-016 6.20208e-014
rhumerus -40.0649 -8.49129 -75.2614
rradius 24.1172
rwrist 0.550326
rhand -19.2793 -16.8426
rfingers 7.12502
rthumb 7.03558 -46.7057
lclavicle -8.94531e-016 6.20208e-014
lhumerus -37.3786 -15.5783 85.9447
lradius 32.6323
lwrist 41.0617
lhand -30.0617 -6.0103
lfingers 7.12502
lthumb -3.377 23.9427
rfemur -40.8174 17.9131 15.8498
rtibia 33.1888
rfoot -13.6451 -11.3034
rtoes -15.4233
lfemur -38.2472 -13.5655 -13.7938
ltibia 28.8263
lfoot -11.1333 7.20208
ltoes -12.2609
551
root -4.77996 15.3334 41.6111 -156.705 -0.970598 184.182
lowerback -17.1007 0.421597 -8.05166
upperback -4.98848 1.19235 -0.79249
thorax 4.02003 0.243283 3.93284
lowerneck -24.3261 6.32324 6.03751
upperneck 25.4954 7.08032 -2.77232
head 12.8907 3.17268 -0.819458
rclavicle 2.39536e-014 3.97569e-014
rhumerus -40.2277 -8.52763 -75.4019
rradius 24.5889
rwrist -0.0328989
rhand -18.9761 -16.7907
rfingers 7.12502
rthumb 7.32821 -46.6438
lclavicle 2.39536e-014 3.97569e-014
lhumerus -37.2478 -15.8411 85.8028
lradius 32.6402
lwrist 40.9789
lhand -30.0161 -5.97533
lfingers 7.12502
lthumb -3.33298 23.9784
rfemur -41.1071 17.8665 15.7499
rtibia 33.291
rfoot -13.5944 -11.2423
rtoes -15.5236
lfemur -38.5016 -13.5925 -13.7506
ltibia 28.886
lfoot -11.1086 7.24817
ltoes -12.1671
552
root -4.79414 15.3323 41.6259 -156.569 -0.950583 184.205
lowerback -17.0157 0.379707 -8.24227
upperback -5.00543 1.159 -0.869342
thorax 3.95562 0.227218 3.95011
lowerneck -24.3127 6.29082 6.01194
upperneck 25.8266 6.9691 -2.59038
head 13.0084 3.13498 -0.766917
rclavicle -2.04748e-014 5.725e-014
rhumerus -40.3752 -8.53473 -75.5694
rradius 25.0645
rwrist -0.592851
rhand -18.682 -16.7409
rfingers 7.12502
rthumb 7.61205 -46.584
lclavicle -2.04748e-014 5.725e-014
lhumerus -37.1013 -16.0934 85.6451
lradius 32.6356
lwrist 40.8805
lhand -29.9668 -5.94042
lfingers 7.12502
lthumb -3.28538 24.014
rfemur -41.3969 17.8198 15.6455
rtibia 33.3969
rfoot -13.5343 -11.1759
rtoes -15.6331
lfemur -38.7472 -13.6145 -13.7156
ltibia 28.9414
lfoot -11.0833 7.29169
ltoes -12.0621
553
root -4.80865 15.3308 41.6413 -156.443 -0.923401 184.222
lowerback -16.9099 0.34811 -8.42652
upperback -5.03504 1.13343 -0.956195
thorax 3.86596 0.215648 3.95422
lowerneck -24.2618 6.26859 5.99703
upperneck 26.1694 6.8671 -2.4125
head 13.1256 3.10104 -0.716811
rclavicle -1.94809e-014 1.90833e-014
rhumerus -40.5292 -8.5128 -75.7581
rradius 25.5286
rwrist -1.09775
rhand -18.4368 -16.6501
rfingers 7.12502
rthumb 7.84877 -46.4845
lclavicle -1.94809e-014 1.90833e-014
lhumerus -36.965 -16.3306 85.4723
lradius 32.624
lwrist 40.7609
lhand -29.9018 -5.92123
lfingers 7.12502
lthumb -3.22265 24.0342
rfemur -41.6846 17.7645 15.5417
rtibia 33.5153
rfoot -13.4694 -11.0993
rtoes -15.7714
lfemur -38.9793 -13.6312 -13.6925
ltibia 28.9935
lfoot -11.0522 7.32819
ltoes -11.9843
554
root -4.82366 15.3289 41.6571 -156.334 -0.881916 184.234
lowerback -16.7845 -0.680882 -8.30873
upperback -5.08258 1.35333 -0.973829
thorax 3.8196 1.01902 3.95795
lowerneck -24.1745 6.24151 5.95821
upperneck 26.5119 6.76026 -2.2186
head 13.2344 3.0643 -0.658392
rclavicle -1.61016e-014 1.43125e-014
rhumerus -40.6664 -8.44009 -75.9712
rradius 25.9815
rwrist -1.54781
rhand -18.1985 -16.5807
rfingers 7.12502
rthumb 8.0788 -46.4063
lclavicle -1.61016e-014 1.43125e-014
lhumerus -36.8204 -16.5363 85.2866
lradius 32.6063
lwrist 40.6288
lhand -29.8432 -5.90777
lfingers 7.12502
lthumb -3.16602 24.0485
rfemur -41.9696 17.6956 15.441
rtibia 33.6579
rfoot -13.4152 -10.9958
rtoes -15.9128
lfemur -39.1894 -13.64 -13.6865
ltibia 29.0441
lfoot -11.0326 7.36301
ltoes -11.8625
555
root -4.8391 15.3266 41.6735 -156.235 -0.822783 184.239
lowerback -16.6518 -0.70878 -8.49507
upperback -5.11061 1.34276 -1.066
thorax 3.71793 1.02116 3.95885
lowerneck -24.0483 6.1963 5.89449
upperneck 26.8494 6.63137 -2.01401
head 13.3318 3.0163 -0.596912
rclavicle -2.00773e-014 -2.54444e-014
rhumerus -40.7759 -8.31982 -76.2113
rradius 26.4233
rwrist -1.93889
rhand -18.0037 -16.4188
rfingers 7.12502
rthumb 8.26676 -46.237
lclavicle -2.00773e-014 -2.54444e-014
lhumerus -36.6552 -16.7027 85.0807
lradius 32.5819
lwrist 40.4832
lhand -29.7973 -5.89211
lfingers 7.12502
lthumb -3.12171 24.0648
rfemur -42.26 17.6056 15.343
rtibia 33.8277
rfoot -13.366 -10.8559
rtoes -16.0419
lfemur -39.3832 -13.636 -13.6998
ltibia 29.0938
lfoot -11.0152 7.39155
ltoes -11.7317
556
root -4.85472 15.3238 41.6907 -156.142 -0.744129 184.236
lowerback -16.5134 -0.731915 -8.68996
upperback -5.13474 1.33846 -1.16237
thorax 3.61648 1.0262 3.9612
lowerneck -23.9282 6.16306 5.84297
upperneck 27.2009 6.51291 -1.81667
head 13.4386 2.9721 -0.537883
rclavicle 1.92821e-014 -7.95139e-015
rhumerus -40.8488 -8.16717 -76.4723
rradius 26.8406
rwrist -2.251
rhand -17.8268 -16.2169
rfingers 7.12502
rthumb 8.43745 -46.0284
lclavicle 1.92821e-014 -7.95139e-015
lhumerus -36.4652 -16.8315 84.8516
lradius 32.5527
lwrist 40.3358
lhand -29.7562 -5.87848
lfingers 7.12502
lthumb -3.08205 24.079
rfemur -42.5651 17.491 15.246
rtibia 34.0254
rfoot -13.3226 -10.6746
rtoes -16.1569
lfemur -39.5692 -13.6161 -13.7318
ltibia 29.1435
lfoot -10.9991 7.41446
ltoes -11.5959
557
root -4.8707 15.3206 41.7083 -156.064 -0.636355 184.227
lowerback -16.3716 -0.747478 -8.89498
upperback -5.14345 1.34271 -1.25785
thorax 3.52806 1.0334 3.97189
lowerneck -23.8085 6.11679 5.7627
upperneck 27.5507 6.38057 -1.60983
head 13.5435 2.91964 -0.472913
rclavicle 2.28602e-014 -2.38542e-014
rhumerus -40.8628 -7.98188 -76.7454
rradius 27.2396
rwrist -2.50588
rhand -17.6178 -16.0762
rfingers 7.12502
rthumb 8.63922 -45.8795
lclavicle 2.28602e-014 -2.38542e-014
lhumerus -36.2386 -16.909 84.6001
lradius 32.5215
lwrist 40.1931
lhand -29.7407 -5.86106
lfingers 7.12502
lthumb -3.06709 24.0966
rfemur -42.873 17.3534 15.1561
rtibia 34.2483
rfoot -13.2921 -10.4403
rtoes -16.2669
lfemur -39.733 -13.5783 -13.7854
ltibia 29.1941
lfoot -10.9872 7.44067
ltoes -11.4608
558
root -4.88728 15.317 41.7259 -156.004 -0.490062 184.218
lowerback -16.2333 -0.752507 -9.10352
upperback -5.1341 1.35884 -1.35156
thorax 3.45887 1.04383 3.98889
lowerneck -23.7131 6.07892 5.6892
upperneck 27.9134 6.25947 -1.42243
head 13.6617 2.86913 -0.413629
rclavicle 6.95746e-015 -5.40694e-014
rhumerus -40.8181 -7.76037 -77.0326
rradius 27.625
rwrist -2.70615
rhand -17.4064 -15.9145
rfingers 7.12502
rthumb 8.84318 -45.7092
lclavicle 6.95746e-015 -5.40694e-014
lhumerus -35.9759 -16.9337 84.3267
lradius 32.4894
lwrist 40.062
lhand -29.7382 -5.84815
lfingers 7.12502
lthumb -3.06465 24.1096
rfemur -43.1781 17.1956 15.079
rtibia 34.4919
rfoot -13.2633 -10.1457
rtoes -16.3415
lfemur -39.8679 -13.5251 -13.8558
ltibia 29.2473
lfoot -10.9843 7.48104
ltoes -11.282
559
root -4.9046 15.3131 41.7432 -155.964 -0.304999 184.21
lowerback -16.0967 -0.743352 -9.3114
upperback -5.10986 1.39142 -1.44667
thorax 3.40408 1.06018 4.00714
lowerneck -23.6451 6.04511 5.62392
upperneck 28.2964 6.14261 -1.2555
head 13.7967 2.81732 -0.362001
rclavicle -1.61016e-014 3.81667e-014
rhumerus -40.7248 -7.51642 -77.3265
rradius 27.9928
rwrist -2.84554
rhand -17.201 -15.7094
rfingers 7.12502
rthumb 9.04142 -45.4957
lclavicle -1.61016e-014 3.81667e-014
lhumerus -35.6758 -16.9123 84.0333
lradius 32.4452
lwrist 39.9405
lhand -29.754 -5.84484
lfingers 7.12502
lthumb -3.07988 24.1127
rfemur -43.4755 17.0264 15.0123
rtibia 34.7502
rfoot -13.2352 -9.79882
rtoes -16.4053
lfemur -39.9726 -13.462 -13.9411
ltibia 29.3045
lfoot -10.9869 7.54307
ltoes -11.0975
